#N canvas 176 40 783 552 12;
#X obj 45 107 symbol;
#X obj 110 146 symbol;
#X msg 120 118 symbol a;
#X obj 110 77 list_enigma;
#X obj 110 170 list fromsymbol;
#X obj 407 31 loadbang;
#X msg 407 55 1;
#X msg 447 55 0;
#N canvas 0 22 450 278 (subpatch) 0;
#X array uniform 26 float 4;
#X coords 0 1000 25 0 200 140 1 0 0;
#X restore 526 43 graph;
#X obj 110 194 - 97;
#X obj 172 272 + 1;
#X obj 110 262 t b f;
#X obj 110 334 i;
#X obj 407 79 metro 50;
#N canvas 0 22 450 278 (subpatch) 0;
#X array normal 250 float 4;
#X coords 0 250 249 0 200 140 1 0 0;
#X restore 524 226 graph;
#X obj 362 272 + 1;
#X obj 290 334 i;
#X obj 290 264 t b f;
#X obj 362 248 tabread normal;
#X obj 290 358 tabwrite normal;
#X obj 407 163 i;
#X obj 437 163 + 1;
#X obj 110 238 spigot;
#X floatatom 407 187 0 0 0 0 - - -;
#X obj 407 210 < 16900;
#N canvas 417 205 856 458 sum_ciphers 0;
#X obj 138 84 unpack s s s s s s s s s s;
#X obj 138 108 list fromsymbol;
#X obj 138 132 - 97;
#X obj 176 135 list fromsymbol;
#X obj 176 159 - 97;
#X obj 216 161 list fromsymbol;
#X obj 216 185 - 97;
#X obj 252 186 list fromsymbol;
#X obj 252 210 - 97;
#X obj 293 212 list fromsymbol;
#X obj 293 236 - 97;
#X obj 331 239 list fromsymbol;
#X obj 331 263 - 97;
#X obj 371 265 list fromsymbol;
#X obj 371 289 - 97;
#X obj 407 290 list fromsymbol;
#X obj 407 314 - 97;
#X obj 446 317 list fromsymbol;
#X obj 446 341 - 97;
#X obj 76 162 +;
#X obj 76 186 +;
#X obj 76 210 +;
#X obj 76 234 +;
#X obj 76 258 +;
#X obj 76 282 +;
#X obj 76 306 +;
#X obj 76 330 +;
#X obj 76 114 t b;
#X obj 76 138 del 1;
#X obj 76 51 inlet;
#X obj 76 388 outlet;
#X text 416 68 this subpatch unpacks the values for each wheel cipher
in the enigma \, converts symbols a-z to floats 0-25 \, and sums the
values to a total range of 0-250.;
#X obj 76 354 +;
#X obj 486 347 list fromsymbol;
#X obj 486 371 - 97;
#X connect 0 0 1 0;
#X connect 0 1 3 0;
#X connect 0 2 5 0;
#X connect 0 3 7 0;
#X connect 0 4 9 0;
#X connect 0 5 11 0;
#X connect 0 6 13 0;
#X connect 0 7 15 0;
#X connect 0 8 17 0;
#X connect 0 9 33 0;
#X connect 1 0 2 0;
#X connect 2 0 19 1;
#X connect 3 0 4 0;
#X connect 4 0 20 1;
#X connect 5 0 6 0;
#X connect 7 0 8 0;
#X connect 8 0 21 1;
#X connect 9 0 10 0;
#X connect 10 0 22 1;
#X connect 11 0 12 0;
#X connect 12 0 23 1;
#X connect 13 0 14 0;
#X connect 14 0 24 1;
#X connect 15 0 16 0;
#X connect 16 0 25 1;
#X connect 17 0 18 0;
#X connect 18 0 26 1;
#X connect 19 0 20 0;
#X connect 20 0 21 0;
#X connect 21 0 22 0;
#X connect 22 0 23 0;
#X connect 23 0 24 0;
#X connect 24 0 25 0;
#X connect 25 0 26 0;
#X connect 26 0 32 0;
#X connect 27 0 28 0;
#X connect 28 0 19 0;
#X connect 29 0 27 0;
#X connect 29 0 0 0;
#X connect 32 0 30 0;
#X connect 33 0 34 0;
#X connect 34 0 32 1;
#X restore 290 196 pd sum_ciphers;
#X obj 290 240 spigot;
#X obj 521 397 loadbang;
#X obj 172 248 tabread uniform;
#X obj 110 358 tabwrite uniform;
#X msg 521 420 \; uniform xlabel 0 0 25 \; uniform ylabel 0 0 1000
\; normal xlabel 0 0 125 250 \; normal ylabel 0 0 250;
#X text 51 413 this patch shows how no-input encryption with the enigma
cipher produces a sudo-random pattern with an uniform distribution.
something like a normal distribution can be made by summing the output
of all cipher wheels \, although is does seem to be tilted off-centre
(see array).;
#X connect 0 0 3 0;
#X connect 1 0 0 1;
#X connect 1 0 4 0;
#X connect 2 0 1 0;
#X connect 3 0 1 0;
#X connect 3 2 25 0;
#X connect 4 0 9 0;
#X connect 5 0 6 0;
#X connect 6 0 13 0;
#X connect 7 0 13 0;
#X connect 9 0 22 0;
#X connect 10 0 12 1;
#X connect 11 0 12 0;
#X connect 11 1 28 0;
#X connect 11 1 29 1;
#X connect 12 0 29 0;
#X connect 13 0 0 0;
#X connect 13 0 20 0;
#X connect 15 0 16 1;
#X connect 16 0 19 0;
#X connect 17 0 16 0;
#X connect 17 1 18 0;
#X connect 17 1 19 1;
#X connect 18 0 15 0;
#X connect 20 0 21 0;
#X connect 20 0 23 0;
#X connect 21 0 20 1;
#X connect 22 0 11 0;
#X connect 23 0 24 0;
#X connect 24 0 22 1;
#X connect 24 0 26 1;
#X connect 25 0 26 0;
#X connect 26 0 17 0;
#X connect 27 0 30 0;
#X connect 28 0 10 0;
