#N canvas 155 55 560 673 12;
#X obj 304 254 tgl 15 0 empty empty empty 17 7 0 10 -262144 -1 -1 1
1;
#X obj 304 274 metro;
#X floatatom 336 210 0 0 0 0 - - -;
#X obj 336 146 loadbang;
#X msg 336 170 160;
#X text 233 211 rate in ms -->;
#X text 248 252 run -->;
#X obj 174 308 symbol;
#X obj 174 332 list_enigma;
#X obj 104 336 symbol;
#X msg 104 312 a;
#X obj 104 288 loadbang;
#X symbolatom 174 356 0 0 0 0 - - -;
#X obj 174 380 list fromsymbol;
#X obj 174 424 - 97;
#X obj 174 448 + 56;
#X obj 174 472 bohlen;
#X floatatom 174 496 0 0 0 0 - - -;
#X text 43 497 frequency in Hz ->;
#X obj 174 520 osc~;
#X obj 304 418 pack 0 0;
#X floatatom 357 384 0 0 0 0 - - -;
#X obj 357 320 loadbang;
#X msg 357 344 160;
#X text 394 385 <-- decay in ms;
#X msg 304 442 1 \, 0 \$2;
#X obj 304 466 vline~;
#X obj 304 490 *~;
#X obj 304 514 lop~ 100;
#X obj 174 544 *~;
#X obj 174 578 output~;
#X text 43 27 this patch employs the Enigma machine as a sudo-random
character generator and maps the 26 letters to pitch across 2 tritaves
of Heinz Bohlen's 13-step scale. this may or may not be considered
sonification \, but since we're essentially 'revealing' the inner data
of the Enigma machine through feedback and its innate randomness \,
it may be a candidate!, f 69;
#X connect 0 0 1 0;
#X connect 1 0 7 0;
#X connect 1 0 20 0;
#X connect 2 0 1 1;
#X connect 3 0 4 0;
#X connect 4 0 2 0;
#X connect 7 0 8 0;
#X connect 8 0 9 0;
#X connect 8 0 12 0;
#X connect 9 0 7 1;
#X connect 10 0 9 0;
#X connect 11 0 10 0;
#X connect 12 0 13 0;
#X connect 13 0 14 0;
#X connect 14 0 15 0;
#X connect 15 0 16 0;
#X connect 16 0 17 0;
#X connect 17 0 19 0;
#X connect 19 0 29 0;
#X connect 20 0 25 0;
#X connect 21 0 20 1;
#X connect 22 0 23 0;
#X connect 23 0 21 0;
#X connect 25 0 26 0;
#X connect 26 0 27 0;
#X connect 26 0 27 1;
#X connect 27 0 28 0;
#X connect 28 0 29 1;
#X connect 29 0 30 0;
#X connect 29 0 30 1;
