#N canvas 96 33 659 603 12;
#X obj 66 155 tgl 15 0 empty empty empty 17 7 0 10 -262144 -1 -1 0
1;
#X obj 66 185 metro;
#X floatatom 168 196 0 0 0 0 - - -;
#X obj 66 209 i;
#X obj 96 209 + 1;
#X obj 126 209 % 2;
#X obj 66 233 sel 0 1;
#X obj 66 355 pack f f;
#X obj 136 355 pack f f;
#X text 213 192 <-- morph time (msec);
#X msg 66 379 1 \$2;
#X msg 136 379 0 \$2;
#X obj 66 403 vline~;
#X obj 226 277 list_enigma;
#X obj 226 373 bohlen;
#X obj 226 397 osc~;
#X obj 226 423 *~;
#X obj 346 277 list_enigma;
#X obj 346 373 bohlen;
#X obj 346 397 osc~;
#X obj 346 471 *~;
#X obj 364 423 *~ -1;
#X obj 364 447 +~ 1;
#X msg 226 253 a;
#X msg 346 253 a;
#X obj 226 301 list fromsymbol;
#X obj 226 325 - 97;
#X obj 346 301 list fromsymbol;
#X obj 346 325 - 97;
#X obj 226 349 +;
#X obj 346 349 +;
#X floatatom 465 326 0 0 0 0 - - -;
#X obj 465 268 loadbang;
#X text 510 327 <-- transpose;
#X obj 226 497 +~;
#X obj 226 522 output~;
#X obj 168 137 loadbang;
#X text 88 151 <- run;
#X msg 465 292 60;
#X msg 168 161 70;
#X text 66 35 instead of reading each letter of the ciphertext in descrete
steps \, two enigma ciphers can be set up each with their own sinusoids
and we can alternate between them. at slow rates the effect is quite
subtle \, but at faster rates (particularly whilst modulating transposition)
we get a distinctive granular oscillator sound., f 74;
#X connect 0 0 1 0;
#X connect 1 0 3 0;
#X connect 2 0 1 1;
#X connect 2 0 7 1;
#X connect 2 0 8 1;
#X connect 3 0 4 0;
#X connect 3 0 6 0;
#X connect 4 0 5 0;
#X connect 5 0 3 1;
#X connect 6 0 7 0;
#X connect 6 0 23 0;
#X connect 6 1 8 0;
#X connect 6 1 24 0;
#X connect 7 0 10 0;
#X connect 8 0 11 0;
#X connect 10 0 12 0;
#X connect 11 0 12 0;
#X connect 12 0 16 1;
#X connect 12 0 21 0;
#X connect 13 0 25 0;
#X connect 14 0 15 0;
#X connect 15 0 16 0;
#X connect 16 0 34 0;
#X connect 17 0 27 0;
#X connect 18 0 19 0;
#X connect 19 0 20 0;
#X connect 20 0 34 1;
#X connect 21 0 22 0;
#X connect 22 0 20 1;
#X connect 23 0 13 0;
#X connect 24 0 17 0;
#X connect 25 0 26 0;
#X connect 26 0 29 0;
#X connect 27 0 28 0;
#X connect 28 0 30 0;
#X connect 29 0 14 0;
#X connect 30 0 18 0;
#X connect 31 0 30 1;
#X connect 31 0 29 1;
#X connect 32 0 38 0;
#X connect 34 0 35 0;
#X connect 34 0 35 1;
#X connect 36 0 39 0;
#X connect 38 0 31 0;
#X connect 39 0 2 0;
