#N canvas 45 25 961 745 12;
#X obj 144 133 tgl 15 0 empty empty empty 17 7 0 10 -262144 -1 -1 0
1;
#X obj 144 153 metro;
#X floatatom 176 99 0 0 0 0 - - -;
#X obj 54 46 loadbang;
#X text 73 100 rate in ms -->;
#X text 88 131 run -->;
#X obj 144 178 symbol;
#X obj 144 202 list_enigma;
#X obj 54 206 symbol;
#X msg 54 182 a;
#X symbolatom 218 250 0 0 0 0 - - -;
#X obj 218 274 list fromsymbol;
#X obj 218 536 osc~;
#X obj 784 178 pack 0 0;
#X floatatom 837 144 0 0 0 0 - - -;
#X obj 837 80 loadbang;
#X msg 784 202 1 \, 0 \$2;
#X obj 784 226 vline~;
#X obj 784 250 *~;
#X obj 784 595 lop~ 100;
#X obj 218 615 *~;
#X obj 218 639 output~;
#X obj 218 226 unpack s s s s s s s s s s;
#X symbolatom 268 250 0 0 0 0 - - -;
#X obj 268 294 list fromsymbol;
#X obj 268 536 osc~;
#X symbolatom 318 250 0 0 0 0 - - -;
#X obj 318 314 list fromsymbol;
#X obj 318 536 osc~;
#X symbolatom 368 250 0 0 0 0 - - -;
#X obj 368 334 list fromsymbol;
#X obj 368 536 osc~;
#X obj 218 590 *~ 0.1;
#X symbolatom 418 250 0 0 0 0 - - -;
#X symbolatom 468 250 0 0 0 0 - - -;
#X symbolatom 518 250 0 0 0 0 - - -;
#X symbolatom 568 250 0 0 0 0 - - -;
#X symbolatom 618 250 0 0 0 0 - - -;
#X symbolatom 668 250 0 0 0 0 - - -;
#X obj 418 354 list fromsymbol;
#X obj 418 536 osc~;
#X obj 468 374 list fromsymbol;
#X obj 468 536 osc~;
#X obj 518 394 list fromsymbol;
#X obj 518 536 osc~;
#X obj 568 414 list fromsymbol;
#X obj 568 536 osc~;
#X obj 618 434 list fromsymbol;
#X obj 618 536 osc~;
#X obj 668 454 list fromsymbol;
#X obj 668 536 osc~;
#X msg 837 104 300;
#X text 731 144 decay in ms ->;
#X obj 218 512 easley;
#X obj 268 512 easley;
#X obj 318 512 easley;
#X obj 368 512 easley;
#X obj 418 512 easley;
#X obj 468 512 easley;
#X obj 518 512 easley;
#X obj 568 512 easley;
#X obj 618 512 easley;
#X obj 668 512 easley;
#X floatatom 168 440 0 0 0 0 - - -;
#X obj 168 464 - 41;
#X obj 668 488 +;
#X obj 618 488 +;
#X obj 568 488 +;
#X obj 518 488 +;
#X obj 468 488 +;
#X obj 418 488 +;
#X obj 368 488 +;
#X obj 318 488 +;
#X obj 268 488 +;
#X obj 218 488 +;
#X text 57 440 transpotion -->;
#X text 57 460 in semitones;
#X obj 168 376 loadbang;
#X msg 176 69 140;
#X msg 168 400 10;
#X text 283 37 by reading the internal states of the Enigma cipher
and mapping these to pitch we can create sine-tone mixtures. here we
use 13-tet tuning for a 2 octave range in 10 voice polyphony., f 69
;
#X connect 0 0 1 0;
#X connect 1 0 6 0;
#X connect 1 0 13 0;
#X connect 2 0 1 1;
#X connect 3 0 78 0;
#X connect 3 0 9 0;
#X connect 6 0 7 0;
#X connect 7 0 8 0;
#X connect 7 2 22 0;
#X connect 8 0 6 1;
#X connect 9 0 8 0;
#X connect 10 0 11 0;
#X connect 11 0 74 0;
#X connect 12 0 32 0;
#X connect 13 0 16 0;
#X connect 14 0 13 1;
#X connect 15 0 51 0;
#X connect 16 0 17 0;
#X connect 17 0 18 0;
#X connect 17 0 18 1;
#X connect 18 0 19 0;
#X connect 19 0 20 1;
#X connect 20 0 21 0;
#X connect 20 0 21 1;
#X connect 22 0 10 0;
#X connect 22 1 23 0;
#X connect 22 2 26 0;
#X connect 22 3 29 0;
#X connect 22 4 33 0;
#X connect 22 5 34 0;
#X connect 22 6 35 0;
#X connect 22 7 36 0;
#X connect 22 8 37 0;
#X connect 22 9 38 0;
#X connect 23 0 24 0;
#X connect 24 0 73 0;
#X connect 25 0 32 0;
#X connect 26 0 27 0;
#X connect 27 0 72 0;
#X connect 28 0 32 0;
#X connect 29 0 30 0;
#X connect 30 0 71 0;
#X connect 31 0 32 0;
#X connect 32 0 20 0;
#X connect 33 0 39 0;
#X connect 34 0 41 0;
#X connect 35 0 43 0;
#X connect 36 0 45 0;
#X connect 37 0 47 0;
#X connect 38 0 49 0;
#X connect 39 0 70 0;
#X connect 40 0 32 0;
#X connect 41 0 69 0;
#X connect 42 0 32 0;
#X connect 43 0 68 0;
#X connect 44 0 32 0;
#X connect 45 0 67 0;
#X connect 46 0 32 0;
#X connect 47 0 66 0;
#X connect 48 0 32 0;
#X connect 49 0 65 0;
#X connect 50 0 32 0;
#X connect 51 0 14 0;
#X connect 53 0 12 0;
#X connect 54 0 25 0;
#X connect 55 0 28 0;
#X connect 56 0 31 0;
#X connect 57 0 40 0;
#X connect 58 0 42 0;
#X connect 59 0 44 0;
#X connect 60 0 46 0;
#X connect 61 0 48 0;
#X connect 62 0 50 0;
#X connect 63 0 64 0;
#X connect 64 0 65 1;
#X connect 64 0 66 1;
#X connect 64 0 67 1;
#X connect 64 0 68 1;
#X connect 64 0 69 1;
#X connect 64 0 70 1;
#X connect 64 0 71 1;
#X connect 64 0 72 1;
#X connect 64 0 73 1;
#X connect 64 0 74 1;
#X connect 65 0 62 0;
#X connect 66 0 61 0;
#X connect 67 0 60 0;
#X connect 68 0 59 0;
#X connect 69 0 58 0;
#X connect 70 0 57 0;
#X connect 71 0 56 0;
#X connect 72 0 55 0;
#X connect 73 0 54 0;
#X connect 74 0 53 0;
#X connect 77 0 79 0;
#X connect 78 0 2 0;
#X connect 79 0 63 0;
