#N canvas 127 43 1153 731 12;
#X obj 36 55 tgl 15 0 empty empty empty 17 7 0 10 -262144 -1 -1 0 1
;
#X obj 36 85 metro;
#X floatatom 148 96 0 0 0 0 - - -;
#X obj 36 109 i;
#X obj 66 109 + 1;
#X obj 96 109 % 2;
#X obj 36 133 sel 0 1;
#X obj 36 445 pack f f;
#X obj 106 445 pack f f;
#X text 176 96 <-- morph time (msec);
#X msg 36 469 1 \$2;
#X msg 106 469 0 \$2;
#X obj 36 493 vline~;
#X obj 196 341 osc~;
#X msg 196 153 a;
#X obj 196 245 list fromsymbol;
#X obj 196 269 - 97;
#X obj 148 37 loadbang;
#X text 58 51 <- run;
#X obj 196 177 list_enigma;
#X obj 196 293 +;
#X obj 270 201 unpack s s s s s s s s s s;
#X obj 246 361 osc~;
#X obj 246 265 list fromsymbol;
#X obj 246 289 - 97;
#X obj 246 313 +;
#X obj 296 381 osc~;
#X obj 296 285 list fromsymbol;
#X obj 296 309 - 97;
#X obj 296 333 +;
#X obj 347 401 osc~;
#X obj 346 305 list fromsymbol;
#X obj 346 329 - 97;
#X obj 346 353 +;
#X obj 396 421 osc~;
#X obj 396 325 list fromsymbol;
#X obj 396 349 - 97;
#X obj 396 373 +;
#X obj 446 441 osc~;
#X obj 446 345 list fromsymbol;
#X obj 446 369 - 97;
#X obj 446 393 +;
#X obj 496 461 osc~;
#X obj 496 365 list fromsymbol;
#X obj 496 389 - 97;
#X obj 496 413 +;
#X obj 547 481 osc~;
#X obj 546 385 list fromsymbol;
#X obj 546 409 - 97;
#X obj 546 433 +;
#X obj 196 495 *~ 0.125;
#X obj 196 559 *~;
#X obj 666 341 osc~;
#X obj 666 245 list fromsymbol;
#X obj 666 269 - 97;
#X obj 666 177 list_enigma;
#X obj 666 293 +;
#X obj 740 201 unpack s s s s s s s s s s;
#X obj 716 361 osc~;
#X obj 716 265 list fromsymbol;
#X obj 716 289 - 97;
#X obj 716 313 +;
#X obj 766 381 osc~;
#X obj 766 285 list fromsymbol;
#X obj 766 309 - 97;
#X obj 766 333 +;
#X obj 817 401 osc~;
#X obj 816 305 list fromsymbol;
#X obj 816 329 - 97;
#X obj 816 353 +;
#X obj 866 421 osc~;
#X obj 866 325 list fromsymbol;
#X obj 866 349 - 97;
#X obj 866 373 +;
#X obj 916 441 osc~;
#X obj 916 345 list fromsymbol;
#X obj 916 369 - 97;
#X obj 916 393 +;
#X obj 966 461 osc~;
#X obj 966 365 list fromsymbol;
#X obj 966 389 - 97;
#X obj 966 413 +;
#X obj 1017 481 osc~;
#X obj 1016 385 list fromsymbol;
#X obj 1016 409 - 97;
#X obj 1016 433 +;
#X obj 666 495 *~ 0.125;
#X obj 666 569 *~;
#X obj 684 521 *~ -1;
#X obj 684 545 +~ 1;
#X obj 196 614 +~;
#X obj 196 638 output~;
#X floatatom 539 215 0 0 0 0 - - -;
#X text 581 214 <- transpose;
#X obj 539 166 loadbang;
#X msg 539 190 65;
#X msg 666 153 b;
#X msg 148 61 200;
#X obj 196 317 bohlen~;
#X obj 246 336 bohlen~;
#X obj 296 357 bohlen~;
#X obj 346 377 bohlen~;
#X obj 396 397 bohlen~;
#X obj 446 417 bohlen~;
#X obj 496 437 bohlen~;
#X obj 546 457 bohlen~;
#X obj 666 317 bohlen~;
#X obj 716 337 bohlen~;
#X obj 766 357 bohlen~;
#X obj 816 377 bohlen~;
#X obj 866 397 bohlen~;
#X obj 916 417 bohlen~;
#X obj 966 437 bohlen~;
#X obj 1016 458 bohlen~;
#X text 448 42 we can also alternate between two mixtures \, taking
readings from the internal states each Enigma machine and morphing
between the cryptographic effects of the same settings on two different
pieces of plain text., f 74;
#X connect 0 0 1 0;
#X connect 1 0 3 0;
#X connect 2 0 1 1;
#X connect 2 0 7 1;
#X connect 2 0 8 1;
#X connect 3 0 4 0;
#X connect 3 0 6 0;
#X connect 4 0 5 0;
#X connect 5 0 3 1;
#X connect 6 0 7 0;
#X connect 6 0 14 0;
#X connect 6 1 8 0;
#X connect 6 1 96 0;
#X connect 7 0 10 0;
#X connect 8 0 11 0;
#X connect 10 0 12 0;
#X connect 11 0 12 0;
#X connect 12 0 51 1;
#X connect 12 0 88 0;
#X connect 13 0 50 0;
#X connect 14 0 19 0;
#X connect 15 0 16 0;
#X connect 16 0 20 0;
#X connect 17 0 97 0;
#X connect 19 2 21 0;
#X connect 20 0 98 0;
#X connect 21 2 15 0;
#X connect 21 3 23 0;
#X connect 21 4 27 0;
#X connect 21 5 31 0;
#X connect 21 6 35 0;
#X connect 21 7 39 0;
#X connect 21 8 43 0;
#X connect 21 9 47 0;
#X connect 22 0 50 0;
#X connect 23 0 24 0;
#X connect 24 0 25 0;
#X connect 25 0 99 0;
#X connect 26 0 50 0;
#X connect 27 0 28 0;
#X connect 28 0 29 0;
#X connect 29 0 100 0;
#X connect 30 0 50 0;
#X connect 31 0 32 0;
#X connect 32 0 33 0;
#X connect 33 0 101 0;
#X connect 34 0 50 0;
#X connect 35 0 36 0;
#X connect 36 0 37 0;
#X connect 37 0 102 0;
#X connect 38 0 50 0;
#X connect 39 0 40 0;
#X connect 40 0 41 0;
#X connect 41 0 103 0;
#X connect 42 0 50 0;
#X connect 43 0 44 0;
#X connect 44 0 45 0;
#X connect 45 0 104 0;
#X connect 46 0 50 0;
#X connect 47 0 48 0;
#X connect 48 0 49 0;
#X connect 49 0 105 0;
#X connect 50 0 51 0;
#X connect 51 0 90 0;
#X connect 52 0 86 0;
#X connect 53 0 54 0;
#X connect 54 0 56 0;
#X connect 55 2 57 0;
#X connect 56 0 106 0;
#X connect 57 2 53 0;
#X connect 57 3 59 0;
#X connect 57 4 63 0;
#X connect 57 5 67 0;
#X connect 57 6 71 0;
#X connect 57 7 75 0;
#X connect 57 8 79 0;
#X connect 57 9 83 0;
#X connect 58 0 86 0;
#X connect 59 0 60 0;
#X connect 60 0 61 0;
#X connect 61 0 107 0;
#X connect 62 0 86 0;
#X connect 63 0 64 0;
#X connect 64 0 65 0;
#X connect 65 0 108 0;
#X connect 66 0 86 0;
#X connect 67 0 68 0;
#X connect 68 0 69 0;
#X connect 69 0 109 0;
#X connect 70 0 86 0;
#X connect 71 0 72 0;
#X connect 72 0 73 0;
#X connect 73 0 110 0;
#X connect 74 0 86 0;
#X connect 75 0 76 0;
#X connect 76 0 77 0;
#X connect 77 0 111 0;
#X connect 78 0 86 0;
#X connect 79 0 80 0;
#X connect 80 0 81 0;
#X connect 81 0 112 0;
#X connect 82 0 86 0;
#X connect 83 0 84 0;
#X connect 84 0 85 0;
#X connect 85 0 113 0;
#X connect 86 0 87 0;
#X connect 87 0 90 1;
#X connect 88 0 89 0;
#X connect 89 0 87 1;
#X connect 90 0 91 0;
#X connect 90 0 91 1;
#X connect 92 0 20 1;
#X connect 92 0 25 1;
#X connect 92 0 29 1;
#X connect 92 0 33 1;
#X connect 92 0 37 1;
#X connect 92 0 41 1;
#X connect 92 0 45 1;
#X connect 92 0 49 1;
#X connect 92 0 56 1;
#X connect 92 0 61 1;
#X connect 92 0 65 1;
#X connect 92 0 69 1;
#X connect 92 0 73 1;
#X connect 92 0 77 1;
#X connect 92 0 81 1;
#X connect 92 0 85 1;
#X connect 94 0 95 0;
#X connect 95 0 92 0;
#X connect 96 0 55 0;
#X connect 97 0 2 0;
#X connect 98 0 13 0;
#X connect 99 0 22 0;
#X connect 100 0 26 0;
#X connect 101 0 30 0;
#X connect 102 0 34 0;
#X connect 103 0 38 0;
#X connect 104 0 42 0;
#X connect 105 0 46 0;
#X connect 106 0 52 0;
#X connect 107 0 58 0;
#X connect 108 0 62 0;
#X connect 109 0 66 0;
#X connect 110 0 70 0;
#X connect 111 0 74 0;
#X connect 112 0 78 0;
#X connect 113 0 82 0;
