#N canvas 306 46 625 646 12;
#X obj 87 359 tgl 15 0 empty empty empty 17 7 0 10 -262144 -1 -1 1
1;
#X obj 87 379 metro;
#X floatatom 119 355 0 0 0 0 - - -;
#X obj 119 307 loadbang;
#X text 37 357 run ->;
#X obj 87 447 every;
#X msg 184 391 a;
#X obj 184 415 list_enigma;
#X obj 184 463 list fromsymbol;
#X symbolatom 184 439 0 0 0 0 - - -;
#X text 218 440 <- ciphertext;
#X obj 250 260 list_enigma;
#X msg 250 236 b;
#X obj 250 308 list fromsymbol;
#X obj 336 466 bohlen;
#X obj 336 490 osc~;
#X obj 336 514 *~;
#X text 151 355 <-- rate;
#X obj 336 561 output~;
#X msg 119 331 90;
#X obj 250 332 - 97;
#X obj 336 442 +;
#X floatatom 354 418 0 0 0 0 - - -;
#X obj 354 370 loadbang;
#X msg 354 394 56;
#X text 385 419 <- transpose;
#X obj 184 487 - 97;
#X obj 184 511 % 13;
#X obj 184 535 + 1;
#X obj 478 246 > 12;
#X floatatom 478 270 0 0 0 0 - - -;
#X text 508 271 <- note/rest;
#X obj 87 471 t b b;
#X obj 483 488 vline~;
#X obj 478 294 pack 0 10;
#X obj 250 212 sel 1;
#X symbolatom 250 284 0 0 0 0 - - -;
#X text 40 116 The alphabet is divided so that symbol ranges 'A' to
'M' and 'N' to 'Z' both produce time-divisions between 1 and 13 steps
in duration \, however \, symbols 'A' to 'M' are treated as rests.
The result is 13 posible durations and 13 posible rests., f 78;
#X floatatom 117 502 0 0 0 0 - - -;
#X text 20 502 bang count ->;
#X text 40 26 This patch further explores the idea of time-structures
as defined by Gotfried Michael Koenig in 'The Construction of Sound'.
The time structure in the previous patch could be considered pointillistic
since "the time-points are merely marked". In this patch \, the time-structure
is "articulated in planes [...] some durations are replaced by corresponding
rests" (Koenig \, 15:1963)., f 78;
#X connect 0 0 1 0;
#X connect 1 0 5 0;
#X connect 2 0 1 1;
#X connect 3 0 19 0;
#X connect 5 0 32 0;
#X connect 5 1 38 0;
#X connect 6 0 7 0;
#X connect 7 0 9 0;
#X connect 8 0 26 0;
#X connect 9 0 8 0;
#X connect 11 0 36 0;
#X connect 12 0 11 0;
#X connect 13 0 20 0;
#X connect 14 0 15 0;
#X connect 15 0 16 0;
#X connect 16 0 18 0;
#X connect 16 0 18 1;
#X connect 19 0 2 0;
#X connect 20 0 21 0;
#X connect 21 0 14 0;
#X connect 22 0 21 1;
#X connect 23 0 24 0;
#X connect 24 0 22 0;
#X connect 26 0 27 0;
#X connect 26 0 29 0;
#X connect 27 0 28 0;
#X connect 28 0 5 1;
#X connect 29 0 30 0;
#X connect 30 0 34 0;
#X connect 30 0 35 0;
#X connect 32 1 6 0;
#X connect 33 0 16 1;
#X connect 34 0 33 0;
#X connect 35 0 12 0;
#X connect 36 0 13 0;
