#N canvas 103 25 630 735 12;
#X obj 70 172 tgl 15 0 empty empty empty 17 7 0 10 -262144 -1 -1 0
1;
#X obj 70 192 metro;
#X floatatom 332 168 0 0 0 0 - - -;
#X obj 332 120 loadbang;
#X text 20 170 run ->;
#X obj 70 260 every;
#X msg 167 204 a;
#X obj 167 228 list_enigma;
#X obj 167 276 list fromsymbol;
#X symbolatom 167 252 0 0 0 0 - - -;
#X text 201 253 <- ciphertext;
#X obj 70 510 list_enigma;
#X msg 70 486 b;
#X obj 70 558 list fromsymbol;
#X obj 180 628 bohlen;
#X obj 180 652 osc~;
#X obj 356 586 *~;
#X text 364 168 <-- rate;
#X obj 356 633 output~;
#X obj 70 582 - 97;
#X obj 180 604 +;
#X floatatom 198 580 0 0 0 0 - - -;
#X obj 198 532 loadbang;
#X msg 198 556 56;
#X text 229 581 <- transpose;
#X obj 167 300 - 97;
#X obj 167 324 % 13;
#X obj 167 348 + 1;
#X obj 217 384 > 12;
#X floatatom 217 408 0 0 0 0 - - -;
#X obj 70 284 t b b;
#X symbolatom 70 534 0 0 0 0 - - -;
#X obj 367 192 unpack s s s s;
#X symbolatom 367 216 0 0 0 0 - - -;
#X symbolatom 487 216 0 0 0 0 - - -;
#X obj 367 240 list fromsymbol;
#X obj 367 264 - 97;
#X obj 367 288 / 25;
#X floatatom 367 312 0 0 0 0 - - -;
#X obj 487 240 list fromsymbol;
#X obj 487 264 - 97;
#X obj 487 288 / 25;
#X floatatom 487 312 0 0 0 0 - - -;
#X obj 334 466 pack f f f;
#X obj 314 372 *;
#X obj 334 514 vline~;
#X obj 314 442 spigot;
#X msg 334 490 \$2 \, \$3 \$1 \, 0 0 \$1;
#X obj 314 396 pipe 1;
#X obj 70 438 pipe 1;
#X obj 70 462 sel 1;
#X text 127 409 note/rest ->;
#X msg 332 144 60;
#X text 29 24 exploring parameter mapping further \, ciphertext can
be used to define the initial and destination amplitudes in a trapezoidal
envelope in addition to note durations and rests. this approach is
inspired by Stockhausen's 'Studie II' which uses the same kind of trapezoidal
envelopes., f 81;
#X obj 334 538 lop~ 25;
#X connect 0 0 1 0;
#X connect 1 0 5 0;
#X connect 2 0 1 1;
#X connect 2 0 44 1;
#X connect 3 0 52 0;
#X connect 5 0 30 0;
#X connect 6 0 7 0;
#X connect 7 0 9 0;
#X connect 7 2 32 0;
#X connect 8 0 25 0;
#X connect 9 0 8 0;
#X connect 11 0 31 0;
#X connect 12 0 11 0;
#X connect 13 0 19 0;
#X connect 14 0 15 0;
#X connect 15 0 16 0;
#X connect 16 0 18 0;
#X connect 16 0 18 1;
#X connect 19 0 20 0;
#X connect 20 0 14 0;
#X connect 21 0 20 1;
#X connect 22 0 23 0;
#X connect 23 0 21 0;
#X connect 25 0 26 0;
#X connect 25 0 28 0;
#X connect 26 0 27 0;
#X connect 27 0 5 1;
#X connect 27 0 44 0;
#X connect 28 0 29 0;
#X connect 29 0 46 1;
#X connect 29 0 49 0;
#X connect 30 1 6 0;
#X connect 31 0 13 0;
#X connect 32 2 33 0;
#X connect 32 3 34 0;
#X connect 33 0 35 0;
#X connect 34 0 39 0;
#X connect 35 0 36 0;
#X connect 36 0 37 0;
#X connect 37 0 38 0;
#X connect 38 0 43 1;
#X connect 39 0 40 0;
#X connect 40 0 41 0;
#X connect 41 0 42 0;
#X connect 42 0 43 2;
#X connect 43 0 47 0;
#X connect 44 0 48 0;
#X connect 45 0 54 0;
#X connect 46 0 43 0;
#X connect 47 0 45 0;
#X connect 48 0 46 0;
#X connect 49 0 50 0;
#X connect 50 0 12 0;
#X connect 52 0 2 0;
#X connect 54 0 16 1;
