#N canvas 208 25 688 657 12;
#X obj 56 254 soundfiler;
#N canvas 0 22 450 278 (subpatch) 0;
#X array table 16900 float 2;
#X coords 0 1 16900 -1 200 140 1 0 0;
#X restore 56 296 graph;
#X msg 56 230 read -resize 321a_a.wav table;
#X floatatom 376 196 0 0 100 0 - bandwidth -;
#X obj 376 366 phasor~;
#X obj 376 390 *~ 16900;
#X obj 376 414 tabread~ table;
#X obj 296 516 output~;
#X obj 426 453 slop~ 1e+09 0 0 0 0;
#X obj 504 366 loadbang;
#X obj 504 390 samplerate~;
#X obj 486 414 /~;
#X floatatom 376 294 0 0 0 0 Hz - -;
#X obj 376 318 / 16899;
#X obj 376 342 lop~ 5;
#X obj 486 318 lop~ 5;
#X obj 376 220 / 100;
#X obj 376 244 pow 2;
#X obj 376 270 * 20000;
#X floatatom 296 156 0 0 100 0 - sine-freq -;
#X obj 296 180 / 100;
#X obj 296 204 pow 2;
#X obj 296 302 lop~ 5;
#X obj 296 326 osc~;
#X obj 296 482 *~;
#X text 330 156 <- sinusoid frequency (%);
#X text 410 196 <- encryption rate \, 'bandwidth' (%);
#X obj 296 254 + 50;
#X obj 296 230 * 19950;
#X floatatom 296 278 0 0 0 0 Hz - -;
#X text 56 595 [1] 'Computer Music Experiences \, 1961-1964' \, Electronic
Music Reports #1. Utrecht: Institute of Sonology \, 1969, f 77;
#X text 56 35 by modulating the amplitude of a sinusoid with encyrption
strings played at audio rate \, a variety of noise band spectrums can
be obtained. this is similar to the method used by James Tenney in
'Analog 1: Noise Study' of 1961 [1]., f 77;
#X obj 56 146 loadbang;
#X msg 66 170 \; sine-freq 33 \; bandwidth 18 \;;
#X connect 2 0 0 0;
#X connect 3 0 16 0;
#X connect 4 0 5 0;
#X connect 5 0 6 0;
#X connect 6 0 8 0;
#X connect 8 0 24 1;
#X connect 9 0 10 0;
#X connect 10 0 11 1;
#X connect 11 0 8 2;
#X connect 11 0 8 4;
#X connect 12 0 13 0;
#X connect 12 0 15 0;
#X connect 13 0 14 0;
#X connect 14 0 4 0;
#X connect 15 0 11 0;
#X connect 16 0 17 0;
#X connect 17 0 18 0;
#X connect 18 0 12 0;
#X connect 19 0 20 0;
#X connect 20 0 21 0;
#X connect 21 0 28 0;
#X connect 22 0 23 0;
#X connect 23 0 24 0;
#X connect 24 0 7 1;
#X connect 24 0 7 0;
#X connect 27 0 29 0;
#X connect 28 0 27 0;
#X connect 29 0 22 0;
#X connect 32 0 2 0;
#X connect 32 0 33 0;
