#N canvas 109 100 702 619 12;
#N canvas 0 25 1388 516 arrays 0;
#N canvas 0 22 450 278 (subpatch) 0;
#X array r3 26 float 3;
#A 0 2 9 6 3 15 18 7 10 19 20 17 0 22 25 23 5 12 24 13 16 14 1 21 11
8 4;
#X coords 0 25 26 0 200 140 1 0 0;
#X restore 30 351 graph;
#N canvas 0 22 450 278 (subpatch) 0;
#X array r2 26 float 3;
#A 0 18 11 21 6 1 19 5 23 9 16 14 7 4 22 8 17 25 24 0 12 10 15 2 13
3 20;
#X coords 0 25 26 0 200 140 1 0 0;
#X restore 30 191 graph;
#N canvas 0 22 450 278 (subpatch) 0;
#X array r1 26 float 3;
#A 0 11 15 6 18 25 12 7 0 4 14 16 10 21 23 17 5 24 1 20 19 13 8 2 9
3 22;
#X coords 0 25 26 0 200 140 1 0 0;
#X restore 30 31 graph;
#N canvas 0 22 450 278 (subpatch) 0;
#X array ukw 26 float 3;
#A 0 8 12 4 19 2 6 5 17 0 24 18 16 1 25 23 22 11 7 10 3 21 20 15 14
9 13;
#X coords 0 25 26 0 200 140 1 0 0;
#X restore 450 351 graph;
#N canvas 0 22 450 278 (subpatch) 0;
#X array etw 26 float 3;
#A 0 9 22 20 11 2 12 13 14 7 15 16 25 24 23 8 17 0 3 10 4 6 21 1 19
18 5;
#X coords 0 25 26 0 200 140 1 0 0;
#X restore 450 31 graph;
#X obj 670 31 loadbang;
#N canvas 0 22 450 278 (subpatch) 0;
#X array _r1 26 float 3;
#A 0 7 17 22 24 8 15 2 6 21 23 11 0 5 20 9 1 10 14 3 19 18 12 25 13
16 4;
#X coords 0 25 26 0 200 140 1 0 0;
#X restore 240 31 graph;
#N canvas 0 22 450 278 (subpatch) 0;
#X array _r2 26 float 3;
#A 0 18 4 22 24 12 6 3 11 14 8 20 1 19 23 10 21 9 15 0 5 25 2 13 7
17 16;
#X coords 0 25 26 0 200 140 1 0 0;
#X restore 240 191 graph;
#N canvas 0 22 450 278 (subpatch) 0;
#X array _r3 26 float 3;
#A 0 11 21 0 3 25 15 2 6 24 1 7 23 16 18 20 4 19 10 5 8 9 22 12 14
17 13;
#X coords 0 25 26 0 200 140 1 0 0;
#X restore 240 351 graph;
#N canvas 0 22 450 278 (subpatch) 0;
#X array _etw 26 float 3;
#A 0 16 22 4 17 19 25 20 8 14 0 18 3 5 6 7 9 10 15 24 23 2 21 1 13
12 11;
#X coords 0 25 26 0 200 140 1 0 0;
#X restore 450 191 graph;
#X text 1190 98 <- entry wheel;
#X text 1189 126 <- inverse of entry wheel;
#X text 1190 154 <- wheel type 1;
#X text 1190 182 <- inverse of wheel type 1;
#X text 1190 210 <- wheel type 2;
#X text 1190 238 <- inverse of wheel type 2;
#X text 1190 266 <- wheel type 3;
#X text 1190 294 <- inverse of wheel type 3;
#X text 1190 321 <- reflector wheel;
#X text 675 411 Each array contains the transfer function (or 'wiring')
for the etw \, rotors \, and ukw in the commercial Enigma. The arrays
are repopulated via the message boxes above during load time \, just
in case the are overwritten by accident!;
#X msg 670 84 \; etw 0 9 22 20 11 2 12 13 14 7 15 16 25 24 23 8 17
0 3 10 4 6 21 1 19 18 5 \; _etw 0 16 22 4 17 19 25 20 8 14 0 18 3 5
6 7 9 10 15 24 23 2 21 1 13 12 11 \; r1 0 11 15 6 18 25 12 7 0 4 14
16 10 21 23 17 5 24 1 20 19 13 8 2 9 3 22 \; _r1 0 7 17 22 24 8 15
2 6 21 23 11 0 5 20 9 1 10 14 3 19 18 12 25 13 16 4 \; r2 0 18 11 21
6 1 19 5 23 9 16 14 7 4 22 8 17 25 24 0 12 10 15 2 13 3 20 \; _r2 0
18 4 22 24 12 6 3 11 14 8 20 1 19 23 10 21 9 15 0 5 25 2 13 7 17 16
\; r3 0 2 9 6 3 15 18 7 10 19 20 17 0 22 25 23 5 12 24 13 16 14 1 21
11 8 4 \; _r3 0 11 21 0 3 25 15 2 6 24 1 7 23 16 18 20 4 19 10 5 8
9 22 12 14 17 13 \; ukw 0 8 12 4 19 2 6 5 17 0 24 18 16 1 25 23 22
11 7 10 3 21 20 15 14 9 13, f 73;
#X restore 585 49 pd arrays;
#X obj 33 184 phasor~;
#X floatatom 33 88 0 0 131 2 - - -;
#X text 85 89 <- midi note;
#X obj 33 112 mtof;
#X floatatom 33 136 0 0 0 0 - - -;
#X text 92 136 <- frequency;
#X obj 33 160 lop~ 5;
#X obj 33 208 *~ 25;
#X msg 253 48 set etw;
#X obj 93 451 /~ 25;
#X obj 93 475 *~ 2;
#X obj 93 499 -~ 1;
#X obj 93 534 output~;
#X obj 93 312 tabread~;
#X msg 253 78 set r1;
#X msg 253 108 set r2;
#X msg 253 138 set r3;
#X msg 253 168 set ukw;
#X msg 253 198 set _r3;
#X msg 253 228 set _r2;
#X msg 253 258 set _r1;
#X text 316 48 <- eintrittswalze (entry wheel);
#X text 316 78 <- wheel type 1;
#X text 316 108 <- wheel type 2;
#X text 316 138 <- wheel type 3;
#X text 316 168 <- umkehrwalze (reversal wheel);
#X text 316 198 <- wheel type 3 \, reverse direction;
#X text 316 228 <- wheel type 2 \, reverse direction;
#X text 316 258 <- wheel type 1 \, reverse direction;
#X text 316 288 <- eintrittswalze \, reverse direction;
#X obj 163 312 tabread4~;
#X msg 253 288 set _etw;
#X obj 93 426 *~;
#X obj 252 352 tgl 15 0 empty empty empty 17 7 0 10 -262144 -1 -1 1
1;
#X obj 111 354 == 0;
#X obj 111 378 pack 0 50;
#X obj 111 402 line~;
#X obj 163 426 *~;
#X obj 181 378 pack 0 50;
#X obj 181 402 line~;
#X obj 181 354 == 1;
#X text 271 350 <- 4-point interpolation;
#X text 237 465 the wheel wirings for each of the wheels in the Enigma
machine can also be used as data for a wavetable oscillator. the difference
between each is subtle but reading the wavetables with 4-point interpolation
provides some additional timbres not available when simply running
the Enigma at audio-rate.;
#X obj 253 17 loadbang;
#X obj 252 328 loadbang;
#X msg 33 40 31;
#X connect 1 0 8 0;
#X connect 2 0 4 0;
#X connect 4 0 5 0;
#X connect 5 0 7 0;
#X connect 7 0 1 0;
#X connect 8 0 14 0;
#X connect 8 0 31 0;
#X connect 9 0 14 0;
#X connect 9 0 31 0;
#X connect 10 0 11 0;
#X connect 11 0 12 0;
#X connect 12 0 13 0;
#X connect 12 0 13 1;
#X connect 14 0 33 0;
#X connect 15 0 14 0;
#X connect 15 0 31 0;
#X connect 16 0 14 0;
#X connect 16 0 31 0;
#X connect 17 0 14 0;
#X connect 17 0 31 0;
#X connect 18 0 14 0;
#X connect 18 0 31 0;
#X connect 19 0 14 0;
#X connect 19 0 31 0;
#X connect 20 0 14 0;
#X connect 20 0 31 0;
#X connect 21 0 14 0;
#X connect 21 0 31 0;
#X connect 31 0 38 0;
#X connect 32 0 31 0;
#X connect 33 0 10 0;
#X connect 34 0 35 0;
#X connect 34 0 41 0;
#X connect 35 0 36 0;
#X connect 36 0 37 0;
#X connect 37 0 33 1;
#X connect 38 0 10 0;
#X connect 39 0 40 0;
#X connect 40 0 38 1;
#X connect 41 0 39 0;
#X connect 44 0 9 0;
#X connect 44 0 46 0;
#X connect 45 0 34 0;
#X connect 46 0 2 0;
