#N canvas 58 30 1019 649 12;
#N canvas 0 25 1280 516 arrays 0;
#N canvas 0 22 450 278 (subpatch) 0;
#X array r3 26 float 3;
#A 0 2 9 6 3 15 18 7 10 19 20 17 0 22 25 23 5 12 24 13 16 14 1 21 11
8 4;
#X coords 0 25 26 0 200 140 1 0 0;
#X restore 30 351 graph;
#N canvas 0 22 450 278 (subpatch) 0;
#X array r2 26 float 3;
#A 0 18 11 21 6 1 19 5 23 9 16 14 7 4 22 8 17 25 24 0 12 10 15 2 13
3 20;
#X coords 0 25 26 0 200 140 1 0 0;
#X restore 30 191 graph;
#N canvas 0 22 450 278 (subpatch) 0;
#X array r1 26 float 3;
#A 0 11 15 6 18 25 12 7 0 4 14 16 10 21 23 17 5 24 1 20 19 13 8 2 9
3 22;
#X coords 0 25 26 0 200 140 1 0 0;
#X restore 30 31 graph;
#N canvas 0 22 450 278 (subpatch) 0;
#X array ukw 26 float 3;
#A 0 8 12 4 19 2 6 5 17 0 24 18 16 1 25 23 22 11 7 10 3 21 20 15 14
9 13;
#X coords 0 25 26 0 200 140 1 0 0;
#X restore 450 351 graph;
#N canvas 0 22 450 278 (subpatch) 0;
#X array etw 26 float 3;
#A 0 9 22 20 11 2 12 13 14 7 15 16 25 24 23 8 17 0 3 10 4 6 21 1 19
18 5;
#X coords 0 25 26 0 200 140 1 0 0;
#X restore 450 31 graph;
#X obj 670 31 loadbang;
#N canvas 0 22 450 278 (subpatch) 0;
#X array _r1 26 float 3;
#A 0 7 17 22 24 8 15 2 6 21 23 11 0 5 20 9 1 10 14 3 19 18 12 25 13
16 4;
#X coords 0 25 26 0 200 140 1 0 0;
#X restore 240 31 graph;
#N canvas 0 22 450 278 (subpatch) 0;
#X array _r2 26 float 3;
#A 0 18 4 22 24 12 6 3 11 14 8 20 1 19 23 10 21 9 15 0 5 25 2 13 7
17 16;
#X coords 0 25 26 0 200 140 1 0 0;
#X restore 240 191 graph;
#N canvas 0 22 450 278 (subpatch) 0;
#X array _r3 26 float 3;
#A 0 11 21 0 3 25 15 2 6 24 1 7 23 16 18 20 4 19 10 5 8 9 22 12 14
17 13;
#X coords 0 25 26 0 200 140 1 0 0;
#X restore 240 351 graph;
#N canvas 0 22 450 278 (subpatch) 0;
#X array _etw 26 float 3;
#A 0 16 22 4 17 19 25 20 8 14 0 18 3 5 6 7 9 10 15 24 23 2 21 1 13
12 11;
#X coords 0 25 26 0 200 140 1 0 0;
#X restore 450 191 graph;
#X text 1190 98 <- entry wheel;
#X text 1189 126 <- inverse of entry wheel;
#X text 1190 154 <- wheel type 1;
#X text 1190 182 <- inverse of wheel type 1;
#X text 1190 210 <- wheel type 2;
#X text 1190 238 <- inverse of wheel type 2;
#X text 1190 266 <- wheel type 3;
#X text 1190 294 <- inverse of wheel type 3;
#X text 1190 321 <- reflector wheel;
#X text 675 411 Each array contains the transfer function (or 'wiring')
for the etw \, rotors \, and ukw in the commercial Enigma. The arrays
are repopulated via the message boxes above during load time \, just
in case the are overwritten by accident!;
#X msg 670 84 \; etw 0 9 22 20 11 2 12 13 14 7 15 16 25 24 23 8 17
0 3 10 4 6 21 1 19 18 5 \; _etw 0 16 22 4 17 19 25 20 8 14 0 18 3 5
6 7 9 10 15 24 23 2 21 1 13 12 11 \; r1 0 11 15 6 18 25 12 7 0 4 14
16 10 21 23 17 5 24 1 20 19 13 8 2 9 3 22 \; _r1 0 7 17 22 24 8 15
2 6 21 23 11 0 5 20 9 1 10 14 3 19 18 12 25 13 16 4 \; r2 0 18 11 21
6 1 19 5 23 9 16 14 7 4 22 8 17 25 24 0 12 10 15 2 13 3 20 \; _r2 0
18 4 22 24 12 6 3 11 14 8 20 1 19 23 10 21 9 15 0 5 25 2 13 7 17 16
\; r3 0 2 9 6 3 15 18 7 10 19 20 17 0 22 25 23 5 12 24 13 16 14 1 21
11 8 4 \; _r3 0 11 21 0 3 25 15 2 6 24 1 7 23 16 18 20 4 19 10 5 8
9 22 12 14 17 13 \; ukw 0 8 12 4 19 2 6 5 17 0 24 18 16 1 25 23 22
11 7 10 3 21 20 15 14 9 13, f 73;
#X restore 852 213 pd arrays;
#X floatatom 265 265 0 0 100 0 - w3_wire -;
#X floatatom 91 522 0 0 100 0 - ukw_gain -;
#X obj 45 452 steep~;
#X floatatom 84 333 0 0 127 0 - ukw_centre -;
#N canvas 0 22 228 281 gain 0;
#X obj 104 136 line~;
#X obj 104 89 / 10;
#X obj 104 113 pack 0 200;
#X obj 104 65 clip 0 100;
#X obj 104 41 inlet;
#X obj 54 229 outlet~;
#X obj 54 41 inlet~;
#X obj 54 157 *~;
#X obj 54 181 expr~ atan($v1);
#X obj 54 205 *~ 0.64;
#X connect 0 0 7 1;
#X connect 1 0 2 0;
#X connect 2 0 0 0;
#X connect 3 0 1 0;
#X connect 4 0 3 0;
#X connect 6 0 7 0;
#X connect 7 0 8 0;
#X connect 8 0 9 0;
#X connect 9 0 5 0;
#X restore 45 546 pd gain;
#N canvas 0 22 265 278 ukw_osc 0;
#X obj 44 141 *~ 25;
#X obj 44 189 *~ 0.08;
#X obj 44 213 -~ 1;
#X obj 44 117 phasor~;
#X obj 44 93 inlet~;
#X text 43 72 frequency (Hz);
#X obj 44 237 outlet~;
#X text 43 22 wavetable oscillator;
#X obj 44 165 tabread~ ukw;
#X text 43 42 (enigma umkehrwalze wiring);
#X connect 0 0 8 0;
#X connect 1 0 2 0;
#X connect 2 0 6 0;
#X connect 3 0 0 0;
#X connect 4 0 3 0;
#X connect 8 0 1 0;
#X restore 45 249 pd ukw_osc;
#X floatatom 45 178 8 0 0 0 - ukw_freq -;
#X obj 45 201 pack 0 200;
#X obj 45 225 line~;
#X obj 84 357 mtof;
#X floatatom 84 381 7 0 0 0 - - -;
#X obj 84 404 pack 0 200;
#X obj 84 428 line~;
#X obj 852 243 loadbang;
#X text 45 110 umkehrwalze;
#X text 45 125 oscillator;
#X text 108 178 Hz;
#X text 84 313 (semitones);
#X text 139 381 Hz;
#X floatatom 205 178 8 0 0 0 - w3_freq -;
#X obj 205 201 pack 0 200;
#X obj 205 225 line~;
#X text 205 125 oscillator;
#X text 268 178 Hz;
#X text 205 110 wheel 3;
#X text 265 245 (xfade \, %);
#X floatatom 251 522 0 0 100 0 - w3_gain -;
#X obj 205 482 steep~;
#X floatatom 244 363 0 0 127 0 - w3_centre -;
#N canvas 0 22 228 281 gain 0;
#X obj 104 136 line~;
#X obj 104 89 / 10;
#X obj 104 113 pack 0 200;
#X obj 104 65 clip 0 100;
#X obj 104 41 inlet;
#X obj 54 229 outlet~;
#X obj 54 41 inlet~;
#X obj 54 157 *~;
#X obj 54 181 expr~ atan($v1);
#X obj 54 205 *~ 0.64;
#X connect 0 0 7 1;
#X connect 1 0 2 0;
#X connect 2 0 0 0;
#X connect 3 0 1 0;
#X connect 4 0 3 0;
#X connect 6 0 7 0;
#X connect 7 0 8 0;
#X connect 8 0 9 0;
#X connect 9 0 5 0;
#X restore 205 546 pd gain;
#X obj 244 387 mtof;
#X floatatom 244 411 7 0 0 0 - - -;
#X obj 244 434 pack 0 200;
#X obj 244 458 line~;
#X text 244 343 (semitones);
#X text 299 411 Hz;
#X floatatom 425 265 0 0 100 0 - w2_wire -;
#X floatatom 365 178 8 0 0 0 - w2_freq -;
#X obj 365 201 pack 0 200;
#X obj 365 225 line~;
#X text 365 125 oscillator;
#X text 428 178 Hz;
#X text 425 245 (xfade \, %);
#X floatatom 411 522 0 0 100 0 - w2_gain -;
#X obj 365 482 steep~;
#X floatatom 404 363 0 0 127 0 - w2_centre -;
#N canvas 0 22 228 281 gain 0;
#X obj 104 136 line~;
#X obj 104 89 / 10;
#X obj 104 113 pack 0 200;
#X obj 104 65 clip 0 100;
#X obj 104 41 inlet;
#X obj 54 229 outlet~;
#X obj 54 41 inlet~;
#X obj 54 157 *~;
#X obj 54 181 expr~ atan($v1);
#X obj 54 205 *~ 0.64;
#X connect 0 0 7 1;
#X connect 1 0 2 0;
#X connect 2 0 0 0;
#X connect 3 0 1 0;
#X connect 4 0 3 0;
#X connect 6 0 7 0;
#X connect 7 0 8 0;
#X connect 8 0 9 0;
#X connect 9 0 5 0;
#X restore 365 546 pd gain;
#X obj 404 387 mtof;
#X floatatom 404 411 7 0 0 0 - - -;
#X obj 404 434 pack 0 200;
#X obj 404 458 line~;
#X text 404 343 (semitones);
#X text 459 411 Hz;
#X text 365 110 wheel 2;
#N canvas 0 22 412 511 r3_osc 0;
#X obj 48 158 *~ 25;
#X obj 48 399 *~ 0.08;
#X obj 48 423 -~ 1;
#X obj 48 134 phasor~;
#X obj 48 375 *~;
#X obj 63 327 *~ -1;
#X obj 63 351 +~ 1;
#X obj 138 375 *~;
#X obj 48 98 inlet~;
#X text 47 77 frequency (Hz);
#X text 218 254 <----------------;
#X text 218 380 <----------------;
#X text 228 294 xfade between;
#X text 228 314 left/right sides;
#X text 228 334 of rotor;
#X obj 48 447 outlet~;
#X text 47 27 wavetable oscillator;
#X obj 156 257 line~;
#X obj 156 233 pack 0 200;
#X obj 156 188 clip 0 100;
#X obj 156 209 / 100;
#X obj 156 164 inlet;
#X text 197 163 <-- xfade (float \, 0-100);
#X text 47 47 (enigma wheel i wiring);
#X obj 48 298 tabread~ r3;
#X obj 138 298 tabread~ _r3;
#X connect 0 0 24 0;
#X connect 0 0 25 0;
#X connect 1 0 2 0;
#X connect 2 0 15 0;
#X connect 3 0 0 0;
#X connect 4 0 1 0;
#X connect 5 0 6 0;
#X connect 6 0 4 1;
#X connect 7 0 1 0;
#X connect 8 0 3 0;
#X connect 17 0 7 1;
#X connect 17 0 5 0;
#X connect 18 0 17 0;
#X connect 19 0 20 0;
#X connect 20 0 18 0;
#X connect 21 0 19 0;
#X connect 24 0 4 0;
#X connect 25 0 7 0;
#X restore 205 289 pd r3_osc;
#N canvas 0 22 412 511 r2_osc 0;
#X obj 48 158 *~ 25;
#X obj 48 399 *~ 0.08;
#X obj 48 423 -~ 1;
#X obj 48 134 phasor~;
#X obj 48 375 *~;
#X obj 63 327 *~ -1;
#X obj 63 351 +~ 1;
#X obj 138 375 *~;
#X obj 48 98 inlet~;
#X text 47 77 frequency (Hz);
#X text 218 254 <----------------;
#X text 218 380 <----------------;
#X text 228 294 xfade between;
#X text 228 314 left/right sides;
#X text 228 334 of rotor;
#X obj 48 447 outlet~;
#X text 47 27 wavetable oscillator;
#X obj 156 257 line~;
#X obj 156 233 pack 0 200;
#X obj 156 188 clip 0 100;
#X obj 156 209 / 100;
#X obj 156 164 inlet;
#X text 197 163 <-- xfade (float \, 0-100);
#X text 47 47 (enigma wheel i wiring);
#X obj 48 298 tabread~ r2;
#X obj 138 298 tabread~ _r2;
#X connect 0 0 24 0;
#X connect 0 0 25 0;
#X connect 1 0 2 0;
#X connect 2 0 15 0;
#X connect 3 0 0 0;
#X connect 4 0 1 0;
#X connect 5 0 6 0;
#X connect 6 0 4 1;
#X connect 7 0 1 0;
#X connect 8 0 3 0;
#X connect 17 0 7 1;
#X connect 17 0 5 0;
#X connect 18 0 17 0;
#X connect 19 0 20 0;
#X connect 20 0 18 0;
#X connect 21 0 19 0;
#X connect 24 0 4 0;
#X connect 25 0 7 0;
#X restore 365 289 pd r2_osc;
#X floatatom 585 265 0 0 100 0 - w1_wire -;
#X floatatom 525 178 8 0 0 0 - w1_freq -;
#X obj 525 201 pack 0 200;
#X obj 525 225 line~;
#X text 525 125 oscillator;
#X text 588 178 Hz;
#X text 585 245 (xfade \, %);
#X floatatom 571 522 0 0 100 0 - w1_gain -;
#X obj 525 482 steep~;
#X floatatom 564 363 0 0 127 0 - w1_centre -;
#N canvas 0 22 228 281 gain 0;
#X obj 104 136 line~;
#X obj 104 89 / 10;
#X obj 104 113 pack 0 200;
#X obj 104 65 clip 0 100;
#X obj 104 41 inlet;
#X obj 54 229 outlet~;
#X obj 54 41 inlet~;
#X obj 54 157 *~;
#X obj 54 181 expr~ atan($v1);
#X obj 54 205 *~ 0.64;
#X connect 0 0 7 1;
#X connect 1 0 2 0;
#X connect 2 0 0 0;
#X connect 3 0 1 0;
#X connect 4 0 3 0;
#X connect 6 0 7 0;
#X connect 7 0 8 0;
#X connect 8 0 9 0;
#X connect 9 0 5 0;
#X restore 525 546 pd gain;
#X obj 564 387 mtof;
#X floatatom 564 411 7 0 0 0 - - -;
#X obj 564 434 pack 0 200;
#X obj 564 458 line~;
#X text 564 343 (semitones);
#X text 619 411 Hz;
#X text 525 110 wheel 1;
#X text 251 502 w3 gain (%);
#X text 411 502 w2 gain (%);
#X text 571 502 w1 gain (%);
#X text 91 502 ukw gain (%);
#X text 84 298 centre freq.;
#X text 244 328 centre freq.;
#X text 404 328 centre freq.;
#X text 564 328 centre freq.;
#X text 244 313 w3 filter;
#X text 84 283 ukw filter;
#X text 404 313 w2 filter;
#X text 564 313 w1 filter;
#X text 265 230 w3 wiring;
#X text 425 230 w2 wiring;
#X text 585 230 w1 wiring;
#N canvas 0 22 412 511 r1_osc 0;
#X obj 48 158 *~ 25;
#X obj 48 399 *~ 0.08;
#X obj 48 423 -~ 1;
#X obj 48 134 phasor~;
#X obj 48 375 *~;
#X obj 63 327 *~ -1;
#X obj 63 351 +~ 1;
#X obj 138 375 *~;
#X obj 48 98 inlet~;
#X text 47 77 frequency (Hz);
#X text 218 254 <----------------;
#X text 218 380 <----------------;
#X text 228 294 xfade between;
#X text 228 314 left/right sides;
#X text 228 334 of rotor;
#X obj 48 447 outlet~;
#X text 47 27 wavetable oscillator;
#X obj 156 257 line~;
#X obj 156 233 pack 0 200;
#X obj 156 188 clip 0 100;
#X obj 156 209 / 100;
#X obj 156 164 inlet;
#X text 197 163 <-- xfade (float \, 0-100);
#X text 47 47 (enigma wheel i wiring);
#X obj 48 298 tabread~ r1;
#X obj 138 298 tabread~ _r1;
#X connect 0 0 24 0;
#X connect 0 0 25 0;
#X connect 1 0 2 0;
#X connect 2 0 15 0;
#X connect 3 0 0 0;
#X connect 4 0 1 0;
#X connect 5 0 6 0;
#X connect 6 0 4 1;
#X connect 7 0 1 0;
#X connect 8 0 3 0;
#X connect 17 0 7 1;
#X connect 17 0 5 0;
#X connect 18 0 17 0;
#X connect 19 0 20 0;
#X connect 20 0 18 0;
#X connect 21 0 19 0;
#X connect 24 0 4 0;
#X connect 25 0 7 0;
#X restore 525 289 pd r1_osc;
#X floatatom 745 265 0 0 100 0 - etw_wire -;
#X floatatom 685 178 8 0 0 0 - etw_freq -;
#X obj 685 201 pack 0 200;
#X obj 685 225 line~;
#X text 685 125 oscillator;
#X text 748 178 Hz;
#X text 745 245 (xfade \, %);
#X floatatom 731 522 0 0 100 0 - etw_gain -;
#X obj 685 482 steep~;
#X floatatom 724 363 0 0 127 0 - etw_centre -;
#N canvas 0 22 228 281 gain 0;
#X obj 104 136 line~;
#X obj 104 89 / 10;
#X obj 104 113 pack 0 200;
#X obj 104 65 clip 0 100;
#X obj 104 41 inlet;
#X obj 54 229 outlet~;
#X obj 54 41 inlet~;
#X obj 54 157 *~;
#X obj 54 181 expr~ atan($v1);
#X obj 54 205 *~ 0.64;
#X connect 0 0 7 1;
#X connect 1 0 2 0;
#X connect 2 0 0 0;
#X connect 3 0 1 0;
#X connect 4 0 3 0;
#X connect 6 0 7 0;
#X connect 7 0 8 0;
#X connect 8 0 9 0;
#X connect 9 0 5 0;
#X restore 685 546 pd gain;
#X obj 724 387 mtof;
#X floatatom 724 411 7 0 0 0 - - -;
#X obj 724 434 pack 0 200;
#X obj 724 458 line~;
#X text 724 343 (semitones);
#X text 779 411 Hz;
#X text 724 328 centre freq.;
#N canvas 0 22 412 511 r1_osc 0;
#X obj 48 158 *~ 25;
#X obj 48 399 *~ 0.08;
#X obj 48 423 -~ 1;
#X obj 48 134 phasor~;
#X obj 48 375 *~;
#X obj 63 327 *~ -1;
#X obj 63 351 +~ 1;
#X obj 138 375 *~;
#X obj 48 98 inlet~;
#X text 47 77 frequency (Hz);
#X text 218 254 <----------------;
#X text 218 380 <----------------;
#X text 228 294 xfade between;
#X text 228 314 left/right sides;
#X text 228 334 of rotor;
#X obj 48 447 outlet~;
#X text 47 27 wavetable oscillator;
#X obj 156 257 line~;
#X obj 156 233 pack 0 200;
#X obj 156 188 clip 0 100;
#X obj 156 209 / 100;
#X obj 156 164 inlet;
#X text 197 163 <-- xfade (float \, 0-100);
#X text 47 47 (enigma wheel i wiring);
#X obj 48 298 tabread~ r1;
#X obj 138 298 tabread~ _r1;
#X connect 0 0 24 0;
#X connect 0 0 25 0;
#X connect 1 0 2 0;
#X connect 2 0 15 0;
#X connect 3 0 0 0;
#X connect 4 0 1 0;
#X connect 5 0 6 0;
#X connect 6 0 4 1;
#X connect 7 0 1 0;
#X connect 8 0 3 0;
#X connect 17 0 7 1;
#X connect 17 0 5 0;
#X connect 18 0 17 0;
#X connect 19 0 20 0;
#X connect 20 0 18 0;
#X connect 21 0 19 0;
#X connect 24 0 4 0;
#X connect 25 0 7 0;
#X restore 685 289 pd r1_osc;
#X text 685 110 eintrittswalze;
#X text 745 230 etw wiring;
#X text 724 313 etw filter;
#X text 731 502 etw gain (%);
#X obj 855 570 output~;
#X text 657 606 increase volume to hear -->;
#X text 44 19 the wirings for all 5 wheel (etw \, w1/2/3 \, and ukw)
are used as wavetables and the resulting oscillators run through a
steep 36dB/Oct bandpass filters - scanning the filters focuses in on
different harmonics created by the wavetable.;
#X text 504 19 (this is somewhat in the vein of Eliane Radigue's approach
to isolating partials in drones). we can crossfade between which wiring
direction is being sonified (flat to pin terminals or vice versa) to
create subtle timbre shifts., f 63;
#X msg 852 268 \; ukw_freq 55.1468 \; ukw_centre 42 \; ukw_gain 100
\; w3_freq 75.2926 \; w3_wire 40 \; w3_centre 66 \; w3_gain 10 \; w2_freq
107.364 \; w2_wire 0 \; w2_centre 57 \; w2_gain 29 \; w1_freq 604.432
\; w1_wire 19 \; w1_centre 88.28 \; w1_gain 4 \; etw_freq 3671.44 \;
etw_wire 0 \; etw_centre 110 \; etw_gain 2 \;;
#X text 45 155 frequencey;
#X text 205 155 frequencey;
#X text 365 155 frequencey;
#X text 525 155 frequencey;
#X text 685 155 frequencey;
#X connect 1 0 55 1;
#X connect 2 0 5 1;
#X connect 3 0 5 0;
#X connect 4 0 10 0;
#X connect 5 0 114 0;
#X connect 5 0 114 1;
#X connect 6 0 3 0;
#X connect 7 0 8 0;
#X connect 8 0 9 0;
#X connect 9 0 6 0;
#X connect 10 0 11 0;
#X connect 11 0 12 0;
#X connect 12 0 13 0;
#X connect 13 0 3 1;
#X connect 14 0 118 0;
#X connect 20 0 21 0;
#X connect 21 0 22 0;
#X connect 22 0 55 0;
#X connect 27 0 30 1;
#X connect 28 0 30 0;
#X connect 29 0 31 0;
#X connect 30 0 114 0;
#X connect 30 0 114 1;
#X connect 31 0 32 0;
#X connect 32 0 33 0;
#X connect 33 0 34 0;
#X connect 34 0 28 1;
#X connect 37 0 56 1;
#X connect 38 0 39 0;
#X connect 39 0 40 0;
#X connect 40 0 56 0;
#X connect 44 0 47 1;
#X connect 45 0 47 0;
#X connect 46 0 48 0;
#X connect 47 0 114 0;
#X connect 47 0 114 1;
#X connect 48 0 49 0;
#X connect 49 0 50 0;
#X connect 50 0 51 0;
#X connect 51 0 45 1;
#X connect 55 0 28 0;
#X connect 56 0 45 0;
#X connect 57 0 90 1;
#X connect 58 0 59 0;
#X connect 59 0 60 0;
#X connect 60 0 90 0;
#X connect 64 0 67 1;
#X connect 65 0 67 0;
#X connect 66 0 68 0;
#X connect 67 0 114 1;
#X connect 67 0 114 0;
#X connect 68 0 69 0;
#X connect 69 0 70 0;
#X connect 70 0 71 0;
#X connect 71 0 65 1;
#X connect 90 0 65 0;
#X connect 91 0 109 1;
#X connect 92 0 93 0;
#X connect 93 0 94 0;
#X connect 94 0 109 0;
#X connect 98 0 101 1;
#X connect 99 0 101 0;
#X connect 100 0 102 0;
#X connect 101 0 114 1;
#X connect 101 0 114 0;
#X connect 102 0 103 0;
#X connect 103 0 104 0;
#X connect 104 0 105 0;
#X connect 105 0 99 1;
#X connect 109 0 99 0;
