#N canvas 189 25 922 729 12;
#X obj 32 441 +~;
#X obj 162 441 +~;
#X obj 32 539 *~;
#X obj 162 585 *~;
#X obj 32 609 +~;
#X obj 342 441 wrap~;
#X obj 342 465 *~ 2;
#X obj 342 489 -~ 1;
#X obj 342 513 abs~;
#X obj 180 539 *~ -1;
#X obj 180 561 +~ 1;
#X obj 50 335 +~ 0.5;
#X obj 180 359 *~ 2;
#X obj 180 383 +~ 1;
#X floatatom 342 68 0 0 1000 0 - - -;
#X obj 342 115 pack 0 50;
#X obj 342 139 vline~;
#X obj 660 366 soundfiler;
#N canvas 0 22 450 278 (subpatch) 0;
#X array table 16900 float 2;
#X coords 0 1 16900 -1 200 140 1 0 0;
#X restore 660 408 graph;
#X msg 660 342 read -resize 321a_a.wav table;
#X obj 377 392 phasor~;
#X floatatom 377 368 0 0 0 0 - - -;
#X obj 32 643 output~;
#X floatatom 31 125 0 1 16899 2 - - -;
#X obj 32 407 *~;
#X obj 162 407 *~;
#X obj 359 416 *~;
#X obj 360 190 / \$1;
#X floatatom 360 214 0 0 0 0 - - -;
#X msg 360 166 16900 \$1;
#X obj 360 241 / 2;
#X obj 342 313 *~;
#X obj 50 359 expr~ $v1 % $v2;
#X obj 180 335 expr~ $v1 % $v2;
#X obj 31 149 / 2;
#X obj 221 261 line~;
#X obj 221 237 pack 0 50;
#X obj 360 289 line~;
#X obj 360 265 pack 0 50;
#X obj 32 465 tabread4~ table;
#X obj 162 466 tabread4~ table;
#X obj 31 173 sig~;
#X text 87 126 <- cipher period / table size;
#X msg 31 91 128;
#X obj 31 17 loadbang;
#X text 413 368 <- read speed / osc. frequency;
#X obj 342 91 / 1000;
#X text 383 67 <- initial position / morph (thousandths);
#X msg 342 34 0;
#X msg 71 91 650;
#X text 470 120 in addition to cycling differently sized portions of
the ciphertext \, we can also morph between consecutive portions. for
example \, a cipher period of 650 characters has 26 portions of ciphertext
to morph through (16900 / 650). the more portions \, the more dramatic
and noisy the morph will be. similarly \, the larger the portion the
more noisy the oscillator spectrum.;
#X text 470 230 manipulating the cipher period in real-time also moves
the position within the ciphertext and causes the oscillator pitch
to slew up/down.;
#X msg 111 91 16900;
#X msg 377 343 55;
#X obj 660 316 loadbang;
#X connect 0 0 39 0;
#X connect 1 0 40 0;
#X connect 2 0 4 0;
#X connect 3 0 4 1;
#X connect 4 0 22 0;
#X connect 4 0 22 1;
#X connect 5 0 6 0;
#X connect 6 0 7 0;
#X connect 7 0 8 0;
#X connect 8 0 9 0;
#X connect 8 0 2 1;
#X connect 9 0 10 0;
#X connect 10 0 3 1;
#X connect 11 0 32 0;
#X connect 12 0 13 0;
#X connect 13 0 25 1;
#X connect 14 0 46 0;
#X connect 15 0 16 0;
#X connect 16 0 31 0;
#X connect 19 0 17 0;
#X connect 20 0 26 1;
#X connect 21 0 20 0;
#X connect 23 0 34 0;
#X connect 24 0 0 0;
#X connect 25 0 1 0;
#X connect 26 0 1 1;
#X connect 26 0 0 1;
#X connect 27 0 28 0;
#X connect 28 0 30 0;
#X connect 28 0 36 0;
#X connect 29 0 27 0;
#X connect 30 0 38 0;
#X connect 31 0 5 0;
#X connect 31 0 11 0;
#X connect 31 0 33 0;
#X connect 32 0 24 1;
#X connect 33 0 12 0;
#X connect 34 0 29 0;
#X connect 34 0 41 0;
#X connect 35 0 33 1;
#X connect 35 0 32 1;
#X connect 36 0 35 0;
#X connect 37 0 31 1;
#X connect 38 0 37 0;
#X connect 39 0 2 0;
#X connect 40 0 3 0;
#X connect 41 0 24 0;
#X connect 41 0 25 0;
#X connect 41 0 26 0;
#X connect 43 0 23 0;
#X connect 44 0 43 0;
#X connect 44 0 48 0;
#X connect 46 0 15 0;
#X connect 48 0 14 0;
#X connect 49 0 23 0;
#X connect 52 0 23 0;
#X connect 53 0 21 0;
#X connect 54 0 53 0;
#X connect 54 0 19 0;
