#N canvas 65 25 781 746 12;
#X obj 30 67 tgl 15 0 empty empty empty 17 7 0 10 -262144 -1 -1 0 1
;
#X obj 30 87 metro;
#X floatatom 62 63 0 0 0 0 - - -;
#X obj 190 91 i;
#X obj 230 91 + 1;
#X floatatom 190 139 0 0 0 0 - - -;
#X obj 190 163 t b f;
#X obj 155 241 list split;
#X symbolatom 188 265 0 0 0 0 - - -;
#X obj 288 241 list length;
#X floatatom 288 265 0 0 0 0 - - -;
#X obj 188 369 list fromsymbol;
#X obj 188 393 - 97;
#X obj 30 462 pack f f;
#X floatatom 83 438 0 0 0 0 - - -;
#X msg 30 486 1 \, 0 \$2;
#X obj 30 510 vline~;
#X obj 30 534 *~;
#X obj 30 558 lop~ 100;
#X text 41 425 decay;
#X text 41 440 in ms;
#X obj 188 475 +;
#X floatatom 206 451 0 0 0 0 - - -;
#X text 236 451 <- lowest midi note;
#X obj 188 539 mtof;
#X obj 188 563 osc~;
#X obj 30 582 *~;
#X text 319 265 <- phrase length;
#X text 114 140 address ->;
#X obj 234 525 t b f;
#X obj 234 573 list split;
#X obj 369 597 int;
#X obj 267 597 list split 1;
#X obj 267 621 pack s f;
#X msg 267 669 f#5;
#X msg 267 645 set \$1\$2;
#X obj 234 477 t f f;
#X msg 234 550 c c# d d# e f f# g g# a a# b;
#X obj 369 501 / 12;
#X obj 234 501 % 12;
#X obj 271 92 %;
#X obj 62 15 loadbang;
#X msg 62 39 170;
#X text 94 64 <- read speed;
#X text 27 47 run;
#X msg 298 207 e t a o i n s h r d l u;
#X obj 30 656 output~;
#X obj 188 321 list_enigma;
#X symbolatom 188 345 0 0 0 0 - - -;
#X text 91 346 ciphertext ->;
#X obj 190 115 t f f;
#X obj 232 139 sel 0;
#X obj 123 383 loadbang;
#X msg 83 414 200;
#X text 91 266 plain text ->;
#X obj 107 608 rev1~;
#X msg 123 584 30;
#X obj 107 632 *~ 0.5;
#X text 355 297 <- cipher transfer function;
#X msg 206 427 64;
#X msg 232 297 position a a a b;
#X text 304 671 <- note;
#X text 330 20 whilst we could map more common letters to musical pitches
of a particular scale to increase the probabiliy of phrases producing
musical sequences in that scale \, an alternative is to use the Enigma
cipher to do that mapping for us. since Enigma is a polyalphabetic
cipher \, each 'step' introduces a different transfer function. by
trying out various initial wheel positions \, a number of melodies
can be obtained from the same sequence. whilst atonal sequences are
still common \, this approach does seem to lead to interesting and
ideosyncratic melodies that appear to modulate between keys \, giving
a more subtle sense of ambiguity of tonal centre compared to the previous
approach.;
#X connect 0 0 1 0;
#X connect 1 0 3 0;
#X connect 1 0 13 0;
#X connect 2 0 1 1;
#X connect 3 0 4 0;
#X connect 3 0 50 0;
#X connect 4 0 40 0;
#X connect 5 0 6 0;
#X connect 6 0 45 0;
#X connect 6 1 7 1;
#X connect 7 1 8 0;
#X connect 8 0 47 0;
#X connect 9 0 10 0;
#X connect 9 0 40 1;
#X connect 11 0 12 0;
#X connect 12 0 21 0;
#X connect 13 0 15 0;
#X connect 14 0 13 1;
#X connect 15 0 16 0;
#X connect 16 0 17 0;
#X connect 16 0 17 1;
#X connect 17 0 18 0;
#X connect 18 0 26 0;
#X connect 21 0 24 0;
#X connect 21 0 36 0;
#X connect 22 0 21 1;
#X connect 24 0 25 0;
#X connect 25 0 26 1;
#X connect 26 0 46 0;
#X connect 26 0 46 1;
#X connect 26 0 55 0;
#X connect 29 0 37 0;
#X connect 29 1 30 1;
#X connect 30 1 32 0;
#X connect 31 0 33 1;
#X connect 32 0 33 0;
#X connect 33 0 35 0;
#X connect 35 0 34 0;
#X connect 36 0 39 0;
#X connect 36 1 38 0;
#X connect 37 0 30 0;
#X connect 38 0 31 0;
#X connect 39 0 29 0;
#X connect 40 0 3 1;
#X connect 41 0 42 0;
#X connect 42 0 2 0;
#X connect 45 0 7 0;
#X connect 45 0 9 0;
#X connect 47 0 48 0;
#X connect 48 0 11 0;
#X connect 50 0 5 0;
#X connect 50 1 51 0;
#X connect 51 0 60 0;
#X connect 52 0 53 0;
#X connect 52 0 59 0;
#X connect 52 0 56 0;
#X connect 53 0 14 0;
#X connect 55 0 57 0;
#X connect 56 0 55 1;
#X connect 57 0 46 1;
#X connect 57 0 46 0;
#X connect 59 0 22 0;
#X connect 60 0 47 0;
